# xmcd CD database file
#
# Track frame offsets:
#	150
#	20288
#	41588
#	45983
#	55405
#	62075
#	78908
#	92923
#	114645
#	120403
#	123223
#	142338
#	150950
#	165605
#
# Disc length: 2553 seconds
#
# Revision: 0
# Processed by: cddbd v1.5.1PL0 Copyright (c) Steve Scherf et al.
# Submitted via: CDex 1.51
#
DISCID=af09f70e
DTITLE=溝口肇 - Tokyo Tower O.S.T.
DYEAR=2005
DGENRE=New Age
TTITLE0=Tokyo Tower Theme
TTITLE1=Tree For Two
TTITLE2=祝福された二人
TTITLE3=雨音
TTITLE4=にじむ過去
TTITLE5=Piano Concerto No.2 In C Minor, Op.18 II Adagio Sostenuto
TTITLE6=Call You Back Later
TTITLE7=パラレル ラブ
TTITLE8=未来の足音
TTITLE9=心の窓に雪が降るとき
TTITLE10=静かな光
TTITLE11=離別
TTITLE12=愛するために
TTITLE13=Sleepless Nights
EXTD=YEAR: 2005
EXTT0=
EXTT1=
EXTT2=
EXTT3=
EXTT4=
EXTT5=
EXTT6=
EXTT7=
EXTT8=
EXTT9=
EXTT10=
EXTT11=
EXTT12=
EXTT13=
PLAYORDER=
